<?xml version="1.0" standalone="no"?>
<!DOCTYPE svg PUBLIC "-//W3C//DTD SVG 20010904//EN"
 "http://www.w3.org/TR/2001/REC-SVG-20010904/DTD/svg10.dtd">
<svg version="1.0" xmlns="http://www.w3.org/2000/svg"
 width="1024.000000pt" height="1024.000000pt" viewBox="0 0 1024.000000 1024.000000"
 preserveAspectRatio="xMidYMid meet">
<metadata>
Created by potrace 1.11, written by Peter Selinger 2001-2013
</metadata>
<g transform="translate(0.000000,1024.000000) scale(0.100000,-0.100000)"
fill="#000000" stroke="none">
<path d="M0 5120 l0 -5120 5120 0 5120 0 0 5120 0 5120 -5120 0 -5120 0 0
-5120z m3096 760 c326 -943 623 -1802 660 -1908 37 -106 70 -190 74 -185 4 4
121 316 260 693 242 658 252 687 241 725 -5 22 -199 564 -429 1205 l-420 1165
541 3 c297 1 544 -1 548 -5 4 -5 123 -376 265 -825 142 -450 261 -815 265
-810 4 4 125 372 269 817 144 446 265 813 269 818 4 4 250 6 548 5 l540 -3
-428 -1190 c-236 -654 -429 -1197 -429 -1207 0 -12 350 -954 510 -1373 9 -23
13 -27 20 -15 4 8 299 866 655 1905 356 1040 650 1893 654 1898 4 4 293 6 643
5 l636 -3 -1032 -2585 -1031 -2585 -500 -3 -500 -2 -410 1016 c-225 558 -412
1017 -415 1019 -3 2 -190 -454 -416 -1013 l-410 -1017 -494 -2 -495 -3 -1019
2558 c-561 1406 -1026 2572 -1033 2590 l-13 32 641 -2 642 -3 593 -1715z"/>
</g>
</svg>
