<svg xmlns="http://www.w3.org/2000/svg" width="108.031" height="14.53" viewBox="0 0 108.031 14.53">
  <metadata><?xpacket begin="﻿" id="W5M0MpCehiHzreSzNTczkc9d"?>
<x:xmpmeta xmlns:x="adobe:ns:meta/" x:xmptk="Adobe XMP Core 5.6-c138 79.159824, 2016/09/14-01:09:01        ">
   <rdf:RDF xmlns:rdf="http://www.w3.org/1999/02/22-rdf-syntax-ns#">
      <rdf:Description rdf:about=""/>
   </rdf:RDF>
</x:xmpmeta>
                                                                                                    
                                                                                                    
                                                                                                    
                                                                                                    
                                                                                                    
                                                                                                    
                                                                                                    
                                                                                                    
                                                                                                    
                                                                                                    
                                                                                                    
                                                                                                    
                                                                                                    
                                                                                                    
                                                                                                    
                                                                                                    
                                                                                                    
                                                                                                    
                                                                                                    
                                                                                                    
                           
<?xpacket end="w"?></metadata>
<defs>
    <style>
      .cls-1 {
        fill: #1e7bc0;
        fill-rule: evenodd;
      }
    </style>
  </defs>
  <path id="_Free_Shipping" data-name=" Free Shipping" class="cls-1" d="M880.891,2331.73a1.16,1.16,0,1,1,.8-0.34A1.084,1.084,0,0,1,880.891,2331.73Zm-2.286-5.98a0.284,0.284,0,0,1,.08-0.2l1.741-1.74a0.283,0.283,0,0,1,.2-0.08h1.41v2.29h-3.428v-0.27Zm10.286,5.98a1.16,1.16,0,1,1,.8-0.34A1.084,1.084,0,0,1,888.891,2331.73Zm3.259-11.26a0.565,0.565,0,0,0-.4-0.17h-9.143a0.562,0.562,0,0,0-.4.17,0.571,0.571,0,0,0-.17.41v1.71h-1.428a1.334,1.334,0,0,0-.522.12,1.287,1.287,0,0,0-.451.28l-1.768,1.77a1.282,1.282,0,0,0-.2.27,1.562,1.562,0,0,0-.125.27,1.468,1.468,0,0,0-.058.33c-0.012.14-.019,0.24-0.022,0.31s0,0.18,0,.34,0,0.26,0,.31v2.86a0.524,0.524,0,0,0-.4.17,0.532,0.532,0,0,0-.169.4,0.739,0.739,0,0,0,.035.24,0.357,0.357,0,0,0,.121.16,1.207,1.207,0,0,0,.147.1,0.454,0.454,0,0,0,.21.06,1.85,1.85,0,0,0,.2.01,0.811,0.811,0,0,0,.228,0h0.772a2.286,2.286,0,1,0,4.571,0h3.429a2.286,2.286,0,1,0,4.571,0h0.2a0.811,0.811,0,0,0,.228,0,1.85,1.85,0,0,0,.2-0.01,0.454,0.454,0,0,0,.21-0.06,1.384,1.384,0,0,0,.147-0.1,0.354,0.354,0,0,0,.12-0.16,0.738,0.738,0,0,0,.036-0.24v-9.14A0.57,0.57,0,0,0,892.15,2320.47Zm6.395,11.26v-4.6h4.676v-0.81h-4.676v-3.66h5.544v-0.87h-6.524v9.94h0.98Zm10.464-7.32a0.951,0.951,0,0,0-.182-0.01,2.576,2.576,0,0,0-1.47.47,3.355,3.355,0,0,0-1.092,1.32v-1.75h-0.9v7.29h0.952v-4.53a2.7,2.7,0,0,1,1.008-1.39,3.051,3.051,0,0,1,1.68-.53v-0.87Zm5.532,7.33a3.323,3.323,0,0,0,.9-0.38,3.175,3.175,0,0,0,.714-0.57,2.471,2.471,0,0,0,.476-0.74l-0.826-.22a1.688,1.688,0,0,1-.364.54,2.43,2.43,0,0,1-.532.41,3.183,3.183,0,0,1-.644.27,2.817,2.817,0,0,1-.7.1,2.421,2.421,0,0,1-1-.21,2.6,2.6,0,0,1-.833-0.56,3,3,0,0,1-.6-0.87,3.047,3.047,0,0,1-.273-1.08H917.1a0.577,0.577,0,0,0,.014-0.15v-0.23a3.884,3.884,0,0,0-.266-1.43,3.97,3.97,0,0,0-.742-1.19,3.707,3.707,0,0,0-1.141-.82,3.7,3.7,0,0,0-2.919,0,3.77,3.77,0,0,0-1.155.82,3.664,3.664,0,0,0-.756,1.19,3.818,3.818,0,0,0-.273,1.45,3.959,3.959,0,0,0,.273,1.47,3.909,3.909,0,0,0,.763,1.21,3.566,3.566,0,0,0,1.155.82,3.516,3.516,0,0,0,1.463.3A3.829,3.829,0,0,0,914.541,2331.74Zm-3.7-4.04a3.126,3.126,0,0,1,.259-1.06,2.614,2.614,0,0,1,.574-0.84,2.48,2.48,0,0,1,.833-0.55,2.627,2.627,0,0,1,1.008-.19,2.578,2.578,0,0,1,1,.19,2.491,2.491,0,0,1,.826.55,2.882,2.882,0,0,1,.588.83,2.94,2.94,0,0,1,.273,1.07h-5.362Zm11.7,4.04a3.323,3.323,0,0,0,.9-0.38,3.175,3.175,0,0,0,.714-0.57,2.471,2.471,0,0,0,.476-0.74l-0.826-.22a1.688,1.688,0,0,1-.364.54,2.43,2.43,0,0,1-.532.41,3.183,3.183,0,0,1-.644.27,2.817,2.817,0,0,1-.7.1,2.421,2.421,0,0,1-1-.21,2.6,2.6,0,0,1-.833-0.56,3,3,0,0,1-.6-0.87,3.047,3.047,0,0,1-.273-1.08H925.1a0.577,0.577,0,0,0,.014-0.15v-0.23a3.884,3.884,0,0,0-.266-1.43,3.97,3.97,0,0,0-.742-1.19,3.707,3.707,0,0,0-1.141-.82,3.7,3.7,0,0,0-2.919,0,3.77,3.77,0,0,0-1.155.82,3.664,3.664,0,0,0-.756,1.19,3.818,3.818,0,0,0-.273,1.45,3.959,3.959,0,0,0,.273,1.47,3.909,3.909,0,0,0,.763,1.21,3.566,3.566,0,0,0,1.155.82,3.516,3.516,0,0,0,1.463.3A3.829,3.829,0,0,0,922.541,2331.74Zm-3.7-4.04a3.126,3.126,0,0,1,.259-1.06,2.614,2.614,0,0,1,.574-0.84,2.48,2.48,0,0,1,.833-0.55,2.627,2.627,0,0,1,1.008-.19,2.578,2.578,0,0,1,1,.19,2.491,2.491,0,0,1,.826.55,2.882,2.882,0,0,1,.588.83,2.94,2.94,0,0,1,.273,1.07h-5.362Zm18.006-4.83a5.064,5.064,0,0,0-1.407-.85,4.889,4.889,0,0,0-1.771-.3,5.283,5.283,0,0,0-1.428.19,3.528,3.528,0,0,0-1.12.55,2.487,2.487,0,0,0-.735.89,2.805,2.805,0,0,0-.259,1.23,2.257,2.257,0,0,0,.2,1.01,1.832,1.832,0,0,0,.609.71,3.533,3.533,0,0,0,.994.49c0.392,0.13.849,0.26,1.372,0.38,0.5,0.11.929,0.22,1.3,0.34a4.12,4.12,0,0,1,.938.39,1.7,1.7,0,0,1,.567.55,1.492,1.492,0,0,1,.189.78,1.42,1.42,0,0,1-.665,1.29,3.373,3.373,0,0,1-1.855.43,5.478,5.478,0,0,1-1.092-.11,4.956,4.956,0,0,1-.973-0.29,4.746,4.746,0,0,1-.826-0.44,4.365,4.365,0,0,1-.637-0.53l-0.49.8a5.932,5.932,0,0,0,3.99,1.44,6.469,6.469,0,0,0,1.442-.16,3.439,3.439,0,0,0,1.134-.5,2.306,2.306,0,0,0,.742-0.84,2.523,2.523,0,0,0,.266-1.19,2.363,2.363,0,0,0-.238-1.12,2.157,2.157,0,0,0-.686-0.76,4.124,4.124,0,0,0-1.085-.53c-0.425-.14-0.9-0.26-1.435-0.38q-0.714-.15-1.239-0.3a3.775,3.775,0,0,1-.861-0.37,1.344,1.344,0,0,1-.5-0.5,1.467,1.467,0,0,1-.161-0.73,1.656,1.656,0,0,1,.6-1.35,3.005,3.005,0,0,1,1.918-.5,4.02,4.02,0,0,1,1.6.3,2.924,2.924,0,0,1,1.12.77Zm7.65,4.59a6.105,6.105,0,0,0-.126-1.28,2.805,2.805,0,0,0-.406-0.99,2,2,0,0,0-.714-0.65,2.289,2.289,0,0,0-1.064-.23,3.091,3.091,0,0,0-1.666.48,3.324,3.324,0,0,0-1.2,1.3v-4.58h-0.952v10.22h0.952v-4.46a2.761,2.761,0,0,1,.385-0.83,3.187,3.187,0,0,1,.609-0.66,3.278,3.278,0,0,1,.749-0.44,2.285,2.285,0,0,1,.805-0.16,1.432,1.432,0,0,1,1.253.62,3.278,3.278,0,0,1,.427,1.86v4.07H944.5v-4.27Zm2.82,4.27v-7.29h-0.952v7.29h0.952Zm0-8.82v-1.4h-0.952v1.4h0.952Zm7.109,8.66a3.2,3.2,0,0,0,1.05-.82,3.62,3.62,0,0,0,.679-1.2,4.409,4.409,0,0,0,.238-1.46,3.975,3.975,0,0,0-.259-1.41,3.87,3.87,0,0,0-.721-1.21,3.563,3.563,0,0,0-1.092-.84,3.058,3.058,0,0,0-1.386-.32,3.02,3.02,0,0,0-1.554.43,3.662,3.662,0,0,0-1.162,1.11v-1.41h-0.854v10.28h0.952v-4.5a3.653,3.653,0,0,0,1.141,1.18,2.826,2.826,0,0,0,1.631.47A2.985,2.985,0,0,0,954.43,2331.57Zm-2.387-.68a2.793,2.793,0,0,1-.707-0.38,3.045,3.045,0,0,1-.588-0.58,3.529,3.529,0,0,1-.427-0.73v-2.24a1.551,1.551,0,0,1,.3-0.69,2.79,2.79,0,0,1,.588-0.58,3.344,3.344,0,0,1,.742-0.39,2.166,2.166,0,0,1,.763-0.15,2.428,2.428,0,0,1,1.071.24,2.635,2.635,0,0,1,.861.65,3.094,3.094,0,0,1,.574.93,3.051,3.051,0,0,1,.21,1.12,3.3,3.3,0,0,1-.182,1.09,3.033,3.033,0,0,1-.525.94,2.762,2.762,0,0,1-.826.66,2.255,2.255,0,0,1-1.071.25A2.1,2.1,0,0,1,952.043,2330.89Zm11.387,0.68a3.2,3.2,0,0,0,1.05-.82,3.62,3.62,0,0,0,.679-1.2,4.409,4.409,0,0,0,.238-1.46,3.975,3.975,0,0,0-.259-1.41,3.87,3.87,0,0,0-.721-1.21,3.563,3.563,0,0,0-1.092-.84,3.058,3.058,0,0,0-1.386-.32,3.02,3.02,0,0,0-1.554.43,3.662,3.662,0,0,0-1.162,1.11v-1.41h-0.854v10.28h0.952v-4.5a3.653,3.653,0,0,0,1.141,1.18,2.826,2.826,0,0,0,1.631.47A2.985,2.985,0,0,0,963.43,2331.57Zm-2.387-.68a2.793,2.793,0,0,1-.707-0.38,3.045,3.045,0,0,1-.588-0.58,3.529,3.529,0,0,1-.427-0.73v-2.24a1.551,1.551,0,0,1,.3-0.69,2.79,2.79,0,0,1,.588-0.58,3.344,3.344,0,0,1,.742-0.39,2.166,2.166,0,0,1,.763-0.15,2.428,2.428,0,0,1,1.071.24,2.635,2.635,0,0,1,.861.65,3.094,3.094,0,0,1,.574.93,3.051,3.051,0,0,1,.21,1.12,3.3,3.3,0,0,1-.182,1.09,3.033,3.033,0,0,1-.525.94,2.762,2.762,0,0,1-.826.66,2.255,2.255,0,0,1-1.071.25A2.1,2.1,0,0,1,961.043,2330.89Zm7.278,0.84v-7.29h-0.952v7.29h0.952Zm0-8.82v-1.4h-0.952v1.4h0.952Zm8.18,4.55a6.959,6.959,0,0,0-.112-1.3,2.9,2.9,0,0,0-.364-0.99,1.754,1.754,0,0,0-.672-0.63,2.14,2.14,0,0,0-1.022-.23,3.578,3.578,0,0,0-1.813.49,3.475,3.475,0,0,0-1.281,1.29v-1.65h-0.868v7.29h0.952v-4.46a2.655,2.655,0,0,1,.406-0.84,3.593,3.593,0,0,1,.637-0.66,2.672,2.672,0,0,1,.777-0.43,2.275,2.275,0,0,1,.84-0.16,1.322,1.322,0,0,1,1.183.59,3.541,3.541,0,0,1,.385,1.89v4.07H976.5v-4.27Zm6.32,3.97a3.1,3.1,0,0,0,1.148-1.11v1.44a2.368,2.368,0,0,1-.21,1.03,2.078,2.078,0,0,1-.567.73,2.541,2.541,0,0,1-.833.43,3.331,3.331,0,0,1-1.008.15,3.625,3.625,0,0,1-1.54-.33,2.608,2.608,0,0,1-1.148-1.03l-0.588.46a3.555,3.555,0,0,0,1.246,1.21,4,4,0,0,0,2.03.45,4.784,4.784,0,0,0,1.379-.2,3.291,3.291,0,0,0,1.134-.59,2.821,2.821,0,0,0,.77-0.97,2.989,2.989,0,0,0,.287-1.34v-7.32h-0.854v1.53a4.591,4.591,0,0,0-1.176-1.19,2.827,2.827,0,0,0-1.624-.47,3.141,3.141,0,0,0-1.379.31,3.4,3.4,0,0,0-1.071.83,3.68,3.68,0,0,0-.693,1.21,4.3,4.3,0,0,0-.245,1.45,3.876,3.876,0,0,0,.252,1.38,3.739,3.739,0,0,0,.707,1.19,3.506,3.506,0,0,0,1.078.84,3.008,3.008,0,0,0,1.379.31A3.088,3.088,0,0,0,982.821,2331.43Zm-2.324-.63a2.66,2.66,0,0,1-.861-0.63,2.815,2.815,0,0,1-.581-0.93,3.013,3.013,0,0,1-.21-1.12,3.476,3.476,0,0,1,.175-1.08,3.068,3.068,0,0,1,.511-0.95,2.733,2.733,0,0,1,.819-0.68,2.319,2.319,0,0,1,1.1-.26,2.344,2.344,0,0,1,.777.14,3.247,3.247,0,0,1,.721.38,2.821,2.821,0,0,1,.6.58,2.77,2.77,0,0,1,.42.72v2.26a1.882,1.882,0,0,1-.294.66,3.011,3.011,0,0,1-.553.58,2.747,2.747,0,0,1-.735.41A2.473,2.473,0,0,1,980.5,2330.8Z" transform="translate(-876.875 -2320.31)"/>
</svg>
