<svg xmlns="http://www.w3.org/2000/svg" width="70.282" height="12.72" viewBox="0 0 70.282 12.72">
  <metadata><?xpacket begin="﻿" id="W5M0MpCehiHzreSzNTczkc9d"?>
<x:xmpmeta xmlns:x="adobe:ns:meta/" x:xmptk="Adobe XMP Core 5.6-c138 79.159824, 2016/09/14-01:09:01        ">
   <rdf:RDF xmlns:rdf="http://www.w3.org/1999/02/22-rdf-syntax-ns#">
      <rdf:Description rdf:about=""/>
   </rdf:RDF>
</x:xmpmeta>
                                                                                                    
                                                                                                    
                                                                                                    
                                                                                                    
                                                                                                    
                                                                                                    
                                                                                                    
                                                                                                    
                                                                                                    
                                                                                                    
                                                                                                    
                                                                                                    
                                                                                                    
                                                                                                    
                                                                                                    
                                                                                                    
                                                                                                    
                                                                                                    
                                                                                                    
                                                                                                    
                           
<?xpacket end="w"?></metadata>
<defs>
    <style>
      .cls-1 {
        fill: #1ec048;
        fill-rule: evenodd;
      }
    </style>
  </defs>
  <path id="_In_Stock" data-name=" In Stock" class="cls-1" d="M890.545,2305.19a0.214,0.214,0,0,0-.107-0.03,0.28,0.28,0,0,0-.205.09l-0.572.58a0.245,0.245,0,0,0-.08.19v2.27a1.434,1.434,0,0,1-1.428,1.43h-7.429a1.434,1.434,0,0,1-1.429-1.43v-7.43a1.434,1.434,0,0,1,1.429-1.43h7.429a1.429,1.429,0,0,1,.4.06,0.29,0.29,0,0,0,.286-0.08l0.438-.43a0.28,0.28,0,0,0,.08-0.26,0.269,0.269,0,0,0-.161-0.21,2.432,2.432,0,0,0-1.044-.22h-7.429a2.567,2.567,0,0,0-2.571,2.57v7.43a2.567,2.567,0,0,0,2.571,2.57h7.429a2.567,2.567,0,0,0,2.571-2.57v-2.84a0.267,0.267,0,0,0-.179-0.26h0Zm2.456-4.61a0.688,0.688,0,0,0-.215-0.51l-0.982-.99a0.722,0.722,0,0,0-1.018,0l-5.776,5.78-2.349-2.35a0.721,0.721,0,0,0-1.017,0l-0.983.99a0.7,0.7,0,0,0,0,1.01l3.84,3.84a0.7,0.7,0,0,0,1.018,0l7.267-7.27A0.682,0.682,0,0,0,893,2300.58Zm6.378,10.28v-9.94H898.4v9.94h0.98Zm7.956-4.27a7.044,7.044,0,0,0-.112-1.3,2.9,2.9,0,0,0-.364-0.99,1.616,1.616,0,0,0-.672-0.63,2.14,2.14,0,0,0-1.022-.23,3.561,3.561,0,0,0-3.094,1.78v-1.65H901.2v7.29h0.952v-4.46a2.655,2.655,0,0,1,.406-0.84,3.276,3.276,0,0,1,.637-0.66,2.96,2.96,0,0,1,.777-0.44,2.483,2.483,0,0,1,.84-0.15,1.322,1.322,0,0,1,1.183.59,3.551,3.551,0,0,1,.385,1.89v4.07h0.952v-4.27Zm12.35-4.59a4.836,4.836,0,0,0-1.407-.85,5.414,5.414,0,0,0-3.2-.11,3.518,3.518,0,0,0-1.12.55,2.31,2.31,0,0,0-.735.89,2.805,2.805,0,0,0-.259,1.23,2.244,2.244,0,0,0,.2,1.01,1.906,1.906,0,0,0,.609.71,3.519,3.519,0,0,0,.994.49c0.392,0.13.849,0.26,1.372,0.38q0.741,0.165,1.3.33a4.607,4.607,0,0,1,.938.4,1.7,1.7,0,0,1,.567.55,1.492,1.492,0,0,1,.189.78,1.431,1.431,0,0,1-.665,1.29,3.375,3.375,0,0,1-1.855.43,5.478,5.478,0,0,1-1.092-.11,5.717,5.717,0,0,1-.973-0.29,4.71,4.71,0,0,1-.826-0.44,4.312,4.312,0,0,1-.637-0.53l-0.49.79a6.211,6.211,0,0,0,5.432,1.28,3.25,3.25,0,0,0,1.134-.49,2.489,2.489,0,0,0,.742-0.84,2.552,2.552,0,0,0,.266-1.19,2.375,2.375,0,0,0-.238-1.12,2.2,2.2,0,0,0-.686-0.77,4.13,4.13,0,0,0-1.085-.52,13.006,13.006,0,0,0-1.435-.38c-0.476-.1-0.889-0.2-1.239-0.31a3.389,3.389,0,0,1-.861-0.36,1.42,1.42,0,0,1-.5-0.5,1.457,1.457,0,0,1-.161-0.73,1.653,1.653,0,0,1,.6-1.35,3,3,0,0,1,1.918-.5,4.2,4.2,0,0,1,1.6.29,3.17,3.17,0,0,1,1.12.77Zm4.766,7.74a2.94,2.94,0,0,1-.392.19,1.77,1.77,0,0,1-.714.13,0.957,0.957,0,0,1-.6-0.19,0.735,0.735,0,0,1-.287-0.59v-4.96h1.68v-0.75h-1.68v-2.47h-0.952v2.47H920.5v0.75h1.008v5.23a1.415,1.415,0,0,0,.126.61,1.19,1.19,0,0,0,.336.44,1.239,1.239,0,0,0,.49.26,1.9,1.9,0,0,0,.588.09,2.543,2.543,0,0,0,.56-0.06,4.178,4.178,0,0,0,.476-0.13,2.535,2.535,0,0,0,.371-0.14,2,2,0,0,0,.245-0.11Zm6.323,0.96a3.484,3.484,0,0,0,1.148-.82,3.731,3.731,0,0,0,.749-1.2,3.976,3.976,0,0,0,.266-1.44,3.907,3.907,0,0,0-.273-1.46,3.709,3.709,0,0,0-.756-1.2,3.512,3.512,0,0,0-1.148-.83,3.342,3.342,0,0,0-1.449-.31,3.29,3.29,0,0,0-1.442.31,3.526,3.526,0,0,0-1.141.83,3.709,3.709,0,0,0-.756,1.2,3.907,3.907,0,0,0-.273,1.46,3.955,3.955,0,0,0,.266,1.44,3.714,3.714,0,0,0,.749,1.2A3.618,3.618,0,0,0,930.774,2310.7Zm-3.9-4.61a3.144,3.144,0,0,1,.574-0.94,2.808,2.808,0,0,1,.84-0.64,2.364,2.364,0,0,1,1.022-.23,2.411,2.411,0,0,1,1.029.23,2.94,2.94,0,0,1,.847.63,3.043,3.043,0,0,1,.574.94,3.114,3.114,0,0,1-.574,3.22,2.616,2.616,0,0,1-.847.63,2.466,2.466,0,0,1-2.058.01,2.538,2.538,0,0,1-.84-0.63,3,3,0,0,1-.567-0.92,3.042,3.042,0,0,1-.21-1.14A3.185,3.185,0,0,1,926.875,2306.09Zm7.1,2.57a3.8,3.8,0,0,0,.763,1.21,3.521,3.521,0,0,0,2.632,1.13,3.7,3.7,0,0,0,1-.13,3.571,3.571,0,0,0,.882-0.38,2.972,2.972,0,0,0,.693-0.57,2.413,2.413,0,0,0,.448-0.72l-0.938-.28a1.35,1.35,0,0,1-.294.47,2.631,2.631,0,0,1-1.834.77,2.411,2.411,0,0,1-1.029-.23,2.606,2.606,0,0,1-.847-0.63,3.024,3.024,0,0,1-.574-0.94,3.278,3.278,0,0,1-.21-1.17,3.229,3.229,0,0,1,.2-1.16,2.893,2.893,0,0,1,.56-0.92,2.594,2.594,0,0,1,.84-0.6,2.493,2.493,0,0,1,2.268.09,2.236,2.236,0,0,1,.861.87l0.924-.29a3.023,3.023,0,0,0-1.162-1.27,3.431,3.431,0,0,0-1.806-.47,3.6,3.6,0,0,0-1.484.3,3.41,3.41,0,0,0-1.155.8,3.61,3.61,0,0,0-.749,1.2,3.931,3.931,0,0,0-.266,1.45A3.884,3.884,0,0,0,933.972,2308.66Zm14.475,2.2-3.094-4.3,2.982-2.98h-1.078l-4.1,4.01v-6.95H942.2v10.22h0.952v-2.28l1.568-1.46,2.688,3.74h1.036Z" transform="translate(-878.156 -2298.28)"/>
</svg>
