<svg xmlns="http://www.w3.org/2000/svg" width="78" height="13.59" viewBox="0 0 78 13.59">
  <metadata><?xpacket begin="﻿" id="W5M0MpCehiHzreSzNTczkc9d"?>
<x:xmpmeta xmlns:x="adobe:ns:meta/" x:xmptk="Adobe XMP Core 5.6-c138 79.159824, 2016/09/14-01:09:01        ">
   <rdf:RDF xmlns:rdf="http://www.w3.org/1999/02/22-rdf-syntax-ns#">
      <rdf:Description rdf:about=""/>
   </rdf:RDF>
</x:xmpmeta>
                                                                                                    
                                                                                                    
                                                                                                    
                                                                                                    
                                                                                                    
                                                                                                    
                                                                                                    
                                                                                                    
                                                                                                    
                                                                                                    
                                                                                                    
                                                                                                    
                                                                                                    
                                                                                                    
                                                                                                    
                                                                                                    
                                                                                                    
                                                                                                    
                                                                                                    
                                                                                                    
                           
<?xpacket end="w"?></metadata>
<defs>
    <style>
      .cls-1 {
        fill: #504a4b;
        fill-rule: evenodd;
        opacity: 0.9;
      }
    </style>
  </defs>
  <path id="_Learn_More" data-name=" Learn More" class="cls-1" d="M885.951,2354.94a0.232,0.232,0,0,1-.18.07h-3.5a0.23,0.23,0,0,1-.179-0.07,0.254,0.254,0,0,1-.071-0.18v-1.25a0.254,0.254,0,0,1,.071-0.18,0.23,0.23,0,0,1,.179-0.07h0.75v-2.5h-0.75a0.23,0.23,0,0,1-.179-0.07,0.254,0.254,0,0,1-.071-0.18v-1.25a0.254,0.254,0,0,1,.071-0.18,0.23,0.23,0,0,1,.179-0.07h2.5a0.232,0.232,0,0,1,.18.07,0.253,0.253,0,0,1,.07.18v4h0.75a0.232,0.232,0,0,1,.18.07,0.253,0.253,0,0,1,.07.18v1.25A0.253,0.253,0,0,1,885.951,2354.94Zm-1-7a0.232,0.232,0,0,1-.18.07h-1.5a0.23,0.23,0,0,1-.179-0.07,0.254,0.254,0,0,1-.071-0.18v-1.25a0.254,0.254,0,0,1,.071-0.18,0.23,0.23,0,0,1,.179-0.07h1.5a0.232,0.232,0,0,1,.18.07,0.253,0.253,0,0,1,.07.18v1.25A0.253,0.253,0,0,1,884.951,2347.94Zm2.082-2.13a6.068,6.068,0,0,0-6.023,0,6,6,0,0,0-2.184,2.19,6,6,0,1,0,10.391,0A6.019,6.019,0,0,0,887.033,2345.81Zm12.816,10.2v-0.75h-4.92v-7.77h-0.84v8.52h5.76Zm4.648,0a2.892,2.892,0,0,0,1.38-.81,2.129,2.129,0,0,0,.408-0.63l-0.708-.19a1.615,1.615,0,0,1-.312.46,1.873,1.873,0,0,1-.456.35,2.43,2.43,0,0,1-.552.23,2.266,2.266,0,0,1-1.458-.09,2.331,2.331,0,0,1-.714-0.49,2.464,2.464,0,0,1-.51-0.73,2.7,2.7,0,0,1-.234-0.93h5.352a0.555,0.555,0,0,0,.012-0.14v-0.19a3.267,3.267,0,0,0-.228-1.22,3.141,3.141,0,0,0-.636-1.02,3.091,3.091,0,0,0-3.48-.7,3.06,3.06,0,0,0-.99.69,3.171,3.171,0,0,0-.648,1.02,3.3,3.3,0,0,0-.234,1.24,3.361,3.361,0,0,0,.234,1.26,3.209,3.209,0,0,0,.654,1.04,3.013,3.013,0,0,0,2.244.97A3.173,3.173,0,0,0,904.5,2356.01Zm-3.168-3.46a2.7,2.7,0,0,1,.222-0.91,2.3,2.3,0,0,1,.492-0.72,2.185,2.185,0,0,1,.714-0.47,2.286,2.286,0,0,1,.864-0.17,2.241,2.241,0,0,1,.858.17,2.2,2.2,0,0,1,.708.47,2.485,2.485,0,0,1,.738,1.63h-4.6Zm9.574,3.28a2.814,2.814,0,0,0,1.086-.87l0.024,0.5a0.6,0.6,0,0,0,.186.43,0.721,0.721,0,0,0,.486.15,2.32,2.32,0,0,0,.312-0.03v-0.72a0.283,0.283,0,0,1-.3-0.34v-2.82a2.44,2.44,0,0,0-.672-1.82,2.523,2.523,0,0,0-1.848-.66,4.243,4.243,0,0,0-2.352.81l0.288,0.54a4.822,4.822,0,0,1,1.02-.55,2.708,2.708,0,0,1,.984-0.19,1.7,1.7,0,0,1,1.3.49,1.8,1.8,0,0,1,.468,1.31v0.56a4.773,4.773,0,0,0-.876-0.24,6.456,6.456,0,0,0-.972-0.08,3.887,3.887,0,0,0-1.056.14,2.559,2.559,0,0,0-.828.39,1.87,1.87,0,0,0-.54.6,1.517,1.517,0,0,0-.192.75,1.893,1.893,0,0,0,.156.77,1.84,1.84,0,0,0,.438.61,2.022,2.022,0,0,0,.66.42,2.209,2.209,0,0,0,.822.15A3.341,3.341,0,0,0,910.9,2355.83Zm-1.806-.43a1.51,1.51,0,0,1-.474-0.3,1.314,1.314,0,0,1-.312-0.44,1.243,1.243,0,0,1-.114-0.54,1.084,1.084,0,0,1,.54-0.94,2.487,2.487,0,0,1,1.4-.36,4.426,4.426,0,0,1,.894.08,5.874,5.874,0,0,1,.846.24v1.02a0.572,0.572,0,0,1-.054.23,0.689,0.689,0,0,1-.162.24,1.931,1.931,0,0,1-.81.63,2.821,2.821,0,0,1-1.17.24A1.637,1.637,0,0,1,909.1,2355.4Zm8.944-5.67a0.7,0.7,0,0,0-.156-0.01,2.186,2.186,0,0,0-1.26.41,2.836,2.836,0,0,0-.936,1.13v-1.5h-0.768v6.25h0.816v-3.89a2.329,2.329,0,0,1,.864-1.19,2.5,2.5,0,0,1,1.44-.45v-0.75Zm6.136,2.62a6.041,6.041,0,0,0-.1-1.12,2.508,2.508,0,0,0-.312-0.85,1.525,1.525,0,0,0-.576-0.54,1.818,1.818,0,0,0-.876-0.19,3.011,3.011,0,0,0-1.554.42,2.97,2.97,0,0,0-1.1,1.1v-1.41h-0.744v6.25h0.816v-3.83a2.175,2.175,0,0,1,.348-0.71,2.847,2.847,0,0,1,.546-0.57,2.507,2.507,0,0,1,.666-0.38,2.281,2.281,0,0,1,.72-0.13,1.123,1.123,0,0,1,1.014.51,3.018,3.018,0,0,1,.33,1.62v3.49h0.816v-3.66Zm13.3,3.66v-8.52h-0.852l-3.348,5.83-3.324-5.83h-0.864v8.52h0.84v-7l3.108,5.41h0.492l3.108-5.41v7h0.84Zm5.362-.14a3.1,3.1,0,0,0,.984-0.7,3.241,3.241,0,0,0,.642-1.03,3.449,3.449,0,0,0,.228-1.24,3.325,3.325,0,0,0-.882-2.28,3.132,3.132,0,0,0-.984-0.71,3.009,3.009,0,0,0-1.242-.26,2.968,2.968,0,0,0-1.236.26,3.153,3.153,0,0,0-.978.71,3.325,3.325,0,0,0-.882,2.28,3.449,3.449,0,0,0,.228,1.24,3.241,3.241,0,0,0,.642,1.03,3.124,3.124,0,0,0,.978.7,3,3,0,0,0,1.248.26A3.038,3.038,0,0,0,942.839,2355.87Zm-3.342-3.95a2.586,2.586,0,0,1,.492-0.81,2.3,2.3,0,0,1,.72-0.54,1.878,1.878,0,0,1,.876-0.2,1.914,1.914,0,0,1,.882.2,2.281,2.281,0,0,1,.726.54,2.429,2.429,0,0,1,.492.8,2.665,2.665,0,0,1,.18.98,2.627,2.627,0,0,1-.18.98,2.537,2.537,0,0,1-.492.8,2.281,2.281,0,0,1-.726.54,2.049,2.049,0,0,1-.882.2,2.105,2.105,0,0,1-1.6-.73,2.67,2.67,0,0,1-.486-0.79,2.627,2.627,0,0,1-.18-0.98A2.718,2.718,0,0,1,939.5,2351.92Zm9.544-2.19a0.7,0.7,0,0,0-.156-0.01,2.186,2.186,0,0,0-1.26.41,2.836,2.836,0,0,0-.936,1.13v-1.5h-0.768v6.25h0.816v-3.89a2.329,2.329,0,0,1,.864-1.19,2.5,2.5,0,0,1,1.44-.45v-0.75Zm4.456,6.28a2.892,2.892,0,0,0,1.38-.81,2.129,2.129,0,0,0,.408-0.63l-0.708-.19a1.615,1.615,0,0,1-.312.46,1.873,1.873,0,0,1-.456.35,2.43,2.43,0,0,1-.552.23,2.266,2.266,0,0,1-1.458-.09,2.331,2.331,0,0,1-.714-0.49,2.464,2.464,0,0,1-.51-0.73,2.7,2.7,0,0,1-.234-0.93h5.352a0.555,0.555,0,0,0,.012-0.14v-0.19a3.267,3.267,0,0,0-.228-1.22,3.141,3.141,0,0,0-.636-1.02,3.091,3.091,0,0,0-3.48-.7,3.06,3.06,0,0,0-.99.69,3.171,3.171,0,0,0-.648,1.02,3.3,3.3,0,0,0-.234,1.24,3.361,3.361,0,0,0,.234,1.26,3.209,3.209,0,0,0,.654,1.04,3.013,3.013,0,0,0,2.244.97A3.173,3.173,0,0,0,953.5,2356.01Zm-3.168-3.46a2.7,2.7,0,0,1,.222-0.91,2.3,2.3,0,0,1,.492-0.72,2.185,2.185,0,0,1,.714-0.47,2.286,2.286,0,0,1,.864-0.17,2.241,2.241,0,0,1,.858.17,2.2,2.2,0,0,1,.708.47,2.485,2.485,0,0,1,.738,1.63h-4.6Zm-72.308,6.04v-0.61h12v0.61h-12Zm12,0v-0.61h66v0.61h-66Z" transform="translate(-878.031 -2345)"/>
</svg>
