<svg xmlns="http://www.w3.org/2000/svg" width="68.781" height="13.53" viewBox="0 0 68.781 13.53">
  <metadata><?xpacket begin="﻿" id="W5M0MpCehiHzreSzNTczkc9d"?>
<x:xmpmeta xmlns:x="adobe:ns:meta/" x:xmptk="Adobe XMP Core 5.6-c138 79.159824, 2016/09/14-01:09:01        ">
   <rdf:RDF xmlns:rdf="http://www.w3.org/1999/02/22-rdf-syntax-ns#">
      <rdf:Description rdf:about=""/>
   </rdf:RDF>
</x:xmpmeta>
                                                                                                    
                                                                                                    
                                                                                                    
                                                                                                    
                                                                                                    
                                                                                                    
                                                                                                    
                                                                                                    
                                                                                                    
                                                                                                    
                                                                                                    
                                                                                                    
                                                                                                    
                                                                                                    
                                                                                                    
                                                                                                    
                                                                                                    
                                                                                                    
                                                                                                    
                                                                                                    
                           
<?xpacket end="w"?></metadata>
<defs>
    <style>
      .cls-1 {
        fill: #f22;
        fill-rule: evenodd;
      }
    </style>
  </defs>
  <path id="_On_Sale" data-name=" On Sale" class="cls-1" d="M961.81,2302.73a1.135,1.135,0,1,1,.808-0.33A1.11,1.11,0,0,1,961.81,2302.73Zm10.34,3.19-6.384-6.37a2.758,2.758,0,0,0-.911-0.58,2.724,2.724,0,0,0-1.045-.24H960.1a1.159,1.159,0,0,0-1.143,1.15v3.71a2.71,2.71,0,0,0,.237,1.04,2.591,2.591,0,0,0,.576.91l6.384,6.39a1.093,1.093,0,0,0,.8.33,1.144,1.144,0,0,0,.813-0.33l4.384-4.39a1.1,1.1,0,0,0,.33-0.81,1.134,1.134,0,0,0-.33-0.81h0Zm11.9,5.04a4.672,4.672,0,0,0,1.477-1.1,5.328,5.328,0,0,0,.98-1.61,5.131,5.131,0,0,0,.357-1.9,5.208,5.208,0,0,0-.336-1.84,5.427,5.427,0,0,0-.945-1.62,4.634,4.634,0,0,0-1.47-1.15,4.032,4.032,0,0,0-1.9-.45,4.128,4.128,0,0,0-1.848.42,4.637,4.637,0,0,0-1.484,1.11,5.249,5.249,0,0,0-.987,1.61,5.169,5.169,0,0,0-.357,1.9,5.372,5.372,0,0,0,.336,1.87,5.177,5.177,0,0,0,.952,1.61,4.838,4.838,0,0,0,1.477,1.14,4.267,4.267,0,0,0,1.9.42A4.121,4.121,0,0,0,984.051,2310.96Zm-5.271-6.14a4.446,4.446,0,0,1,.735-1.33,3.676,3.676,0,0,1,1.162-.94,3.232,3.232,0,0,1,1.526-.36,3.2,3.2,0,0,1,1.484.34,3.836,3.836,0,0,1,1.162.92,4.209,4.209,0,0,1,.763,1.32,4.526,4.526,0,0,1,.273,1.56,4.576,4.576,0,0,1-.994,2.85,3.706,3.706,0,0,1-1.162.95,3.442,3.442,0,0,1-3.024.02,3.836,3.836,0,0,1-1.162-.92,4.372,4.372,0,0,1-.756-1.33,4.656,4.656,0,0,1-.266-1.57A4.575,4.575,0,0,1,978.78,2304.82Zm16.355,2.21a6.959,6.959,0,0,0-.112-1.3,2.9,2.9,0,0,0-.364-0.99,1.754,1.754,0,0,0-.672-0.63,2.14,2.14,0,0,0-1.022-.23,3.578,3.578,0,0,0-1.813.49,3.475,3.475,0,0,0-1.281,1.29v-1.65H989v7.29h0.952v-4.46a2.507,2.507,0,0,1,.406-0.83,3.359,3.359,0,0,1,.637-0.67,2.672,2.672,0,0,1,.777-0.43,2.275,2.275,0,0,1,.84-0.16,1.322,1.322,0,0,1,1.183.59,3.541,3.541,0,0,1,.385,1.89v4.07h0.952v-4.27Zm12.355-4.59a4.8,4.8,0,0,0-1.41-.84,4.694,4.694,0,0,0-1.77-.31,5.265,5.265,0,0,0-1.43.19,3.549,3.549,0,0,0-1.12.55,2.489,2.489,0,0,0-.74.9,2.771,2.771,0,0,0-.25,1.22,2.265,2.265,0,0,0,.2,1.02,1.846,1.846,0,0,0,.61.7,3.52,3.52,0,0,0,.99.49c0.39,0.13.85,0.26,1.37,0.38,0.5,0.11.93,0.22,1.31,0.34a3.661,3.661,0,0,1,.93.4,1.567,1.567,0,0,1,.57.54,1.455,1.455,0,0,1,.19.78,1.41,1.41,0,0,1-.67,1.29,3.355,3.355,0,0,1-1.85.43,5.455,5.455,0,0,1-1.09-.1,5.08,5.08,0,0,1-.98-0.3,4.276,4.276,0,0,1-.82-0.44,4.4,4.4,0,0,1-.64-0.53l-0.49.8a5.932,5.932,0,0,0,3.99,1.44,6.478,6.478,0,0,0,1.44-.16,3.491,3.491,0,0,0,1.14-.5,2.4,2.4,0,0,0,.74-0.84,2.489,2.489,0,0,0,.27-1.19,2.351,2.351,0,0,0-.24-1.12,2.17,2.17,0,0,0-.69-0.76,4.182,4.182,0,0,0-1.08-.53c-0.43-.14-0.91-0.26-1.44-0.38-0.47-.1-0.89-0.2-1.24-0.3a3.886,3.886,0,0,1-.86-0.37,1.468,1.468,0,0,1-.5-0.49,1.8,1.8,0,0,1,.45-2.09,2.991,2.991,0,0,1,1.91-.5,4.04,4.04,0,0,1,1.6.3,2.9,2.9,0,0,1,1.12.77Zm4.99,8.65a3.37,3.37,0,0,0,1.27-1l0.03,0.57a0.7,0.7,0,0,0,.21.5,0.8,0.8,0,0,0,.57.19,2.237,2.237,0,0,0,.37-0.05v-0.84a0.326,0.326,0,0,1-.35-0.39v-3.29a2.884,2.884,0,0,0-.79-2.13,2.946,2.946,0,0,0-2.15-.77,4.9,4.9,0,0,0-2.75.96l0.34,0.63a5.619,5.619,0,0,1,1.19-.65,3.167,3.167,0,0,1,1.15-.22,2.005,2.005,0,0,1,1.51.57,2.1,2.1,0,0,1,.54,1.53v0.66a4.215,4.215,0,0,0-1.02-.28,6.243,6.243,0,0,0-1.13-.1,4.311,4.311,0,0,0-1.23.16,3.222,3.222,0,0,0-.97.45,2.2,2.2,0,0,0-.63.7,1.807,1.807,0,0,0-.22.89,2.164,2.164,0,0,0,.69,1.61,2.478,2.478,0,0,0,1.73.65A3.775,3.775,0,0,0,1012.48,2311.09Zm-2.1-.5a1.75,1.75,0,0,1-.56-0.34,1.816,1.816,0,0,1-.36-0.51,1.514,1.514,0,0,1-.13-0.63,1.28,1.28,0,0,1,.63-1.11,2.878,2.878,0,0,1,1.63-.42,5.194,5.194,0,0,1,1.05.1,5.264,5.264,0,0,1,.98.28v1.19a0.737,0.737,0,0,1-.06.27,0.7,0.7,0,0,1-.19.27,2.241,2.241,0,0,1-.94.75,3.422,3.422,0,0,1-1.37.28A1.913,1.913,0,0,1,1010.38,2310.59Zm6.67-.62a1.417,1.417,0,0,0,.37,1.05,1.467,1.467,0,0,0,1.04.37,4.373,4.373,0,0,0,.66-0.07,3.85,3.85,0,0,0,.66-0.18l-0.17-.77a3.635,3.635,0,0,1-.39.11,1.8,1.8,0,0,1-.37.04,0.854,0.854,0,0,1-.63-0.23,0.874,0.874,0,0,1-.22-0.64v-8.57h-0.95v8.89Zm8.13,1.34a3.554,3.554,0,0,0,1.61-.95,2.512,2.512,0,0,0,.47-0.74l-0.82-.22a1.793,1.793,0,0,1-.37.54,2.35,2.35,0,0,1-.53.41,3.324,3.324,0,0,1-.64.27,2.884,2.884,0,0,1-.7.1,2.47,2.47,0,0,1-1.01-.21,2.588,2.588,0,0,1-.83-0.56,3.115,3.115,0,0,1-.87-1.95h6.25a0.576,0.576,0,0,0,.01-0.15v-0.23a3.761,3.761,0,0,0-1.01-2.62,3.563,3.563,0,0,0-2.6-1.12,3.417,3.417,0,0,0-1.46.31,3.627,3.627,0,0,0-1.15.81,3.673,3.673,0,0,0-.76,1.19,3.855,3.855,0,0,0-.27,1.45,4,4,0,0,0,.27,1.47,3.838,3.838,0,0,0,.77,1.21,3.508,3.508,0,0,0,2.61,1.12A3.878,3.878,0,0,0,1025.18,2311.31Zm-3.7-4.04a3.058,3.058,0,0,1,.26-1.06,2.573,2.573,0,0,1,1.41-1.39,2.58,2.58,0,0,1,1-.19,2.545,2.545,0,0,1,1,.19,2.457,2.457,0,0,1,.83.55,2.966,2.966,0,0,1,.59.83,3.064,3.064,0,0,1,.27,1.07h-5.36Z" transform="translate(-958.969 -2298.72)"/>
</svg>
