<?xml version="1.0" encoding="utf-8"?>
<!-- Generator: Adobe Illustrator 21.0.0, SVG Export Plug-In . SVG Version: 6.00 Build 0)  -->
<svg version="1.1" id="whitehead-logo" xmlns="http://www.w3.org/2000/svg" xmlns:xlink="http://www.w3.org/1999/xlink" x="0px"
	 y="0px" viewBox="0 0 420.4 88.3" style="enable-background:new 0 0 420.4 88.3;" xml:space="preserve">
<style type="text/css">
	.st0{fill:#297BC0;}
	.st1{fill:#FFFFFF;}
</style>
<path class="st0" d="M0,0.1v88.2h420.4V0.1H0z M417.5,85.3h-182V2.9h182V85.3z"/>
<path class="st1" d="M40.5,22.9h9.3l4.4,13.9l4.5-13.9H68l-7.3,20.3l4.4,11.7l11-32.1H87L69.6,66.4h-8.5l-6.9-17.1l-6.9,17.1h-8.4
	L21.5,22.8h10.9l11.1,32.1l4.3-11.7L40.5,22.9z"/>
<path class="st1" d="M128.4,22.8v43.6h-10.1V48.6h-17.4v17.9H90.9V22.8h10.1v16.9h17.4V22.8H128.4z"/>
<path class="st1" d="M136.7,66.4V22.8h10.1v43.6H136.7z"/>
<path class="st1" d="M188.4,31.7h-13.3v34.8H165V31.7h-13.3v-8.8h36.7V31.7z"/>
<path class="st1" d="M224,57.6v8.8h-30.6V22.8h30.1v8.8h-20v8.5h17.2v8.2h-17.2v9.3H224z"/>
<path class="st0" d="M282.1,22.8v43.6H272V48.6h-17.4v17.9h-10.1V22.8h10.1v16.9H272V22.8H282.1z"/>
<path class="st0" d="M321.1,57.6v8.8h-30.6V22.8h30.1v8.8h-20v8.5h17.2v8.2h-17.2v9.3H321.1z"/>
<path class="st0" d="M323,66.4l16.8-43.6h8.2l16.7,43.6H354l-3.4-9.8H337l-3.3,9.8H323z M343.9,33.5l-5.2,16.2h10.3L343.9,33.5z"/>
<path class="st0" d="M368.7,66.4V22.8h16.3c3.6,0,6.8,0.6,9.5,1.7c2.7,1.1,5,2.7,6.8,4.7c1.8,2,3.2,4.3,4.1,6.9
	c0.9,2.6,1.4,5.5,1.4,8.4c0,3.3-0.5,6.3-1.5,9c-1,2.7-2.5,5-4.4,6.9c-1.9,1.9-4.2,3.4-6.9,4.4c-2.7,1-5.7,1.6-8.9,1.6H368.7z
	 M396.4,44.6c0-1.9-0.3-3.7-0.8-5.3c-0.5-1.6-1.3-2.9-2.2-4.1c-1-1.1-2.2-2-3.6-2.6c-1.4-0.6-3-0.9-4.9-0.9h-6.2v25.9h6.2
	c1.8,0,3.5-0.3,4.9-1c1.4-0.7,2.6-1.6,3.6-2.7c1-1.2,1.7-2.5,2.2-4.1C396.2,48.2,396.4,46.5,396.4,44.6z"/>
</svg>
